<svg xmlns="http://www.w3.org/2000/svg" viewBox="0 0 293.64 371.75"><defs><style>.cls-1,.cls-4{fill:#ed1282;}.cls-2{fill:#566cb3;}.cls-3{fill:#fff;stroke:#fff;stroke-width:0.99px;}.cls-3,.cls-4{stroke-miterlimit:10;}.cls-4{stroke:#ed1282;}.cls-5{fill:#e5559e;}</style></defs><title>logo</title><g id="chimney"><rect class="cls-1" x="170.09" y="16.83" width="19" height="33.5"/></g><g id="Layer_2" data-name="Layer 2"><path class="cls-2" d="M189.76,237.65a13.06,13.06,0,0,1,1.77,6.36,12.87,12.87,0,0,1-3.6,8.71l-38.67,39.81a12.16,12.16,0,0,1-17.51,0l-20.06-20.66a12.43,12.43,0,0,1,0-17.5l16.07-16.54.18-.18H13.64l47.55,48.18,9-9c4.56-4.56,11.63,2.51,7.07,7.07l-9.08,9.08,14.2,14.39c3.31-3.25,6.62-6.49,9.8-9.87,3.84-4.09,11.19,1.43,7.85,6.06a27.83,27.83,0,0,1-2.78,3.35,5.41,5.41,0,0,1-1.05.83c-2.24,2.28-4.51,4.52-6.79,6.76l12.81,13,11-11c4.56-4.56,11.63,2.51,7.07,7.07l-11,11,36.11,36.59L280.64,237.65Z"/><polygon class="cls-2" points="275.4 133.24 146.2 2.33 13.57 133.24 275.4 133.24"/><text></text></g><g id="Layer_4" data-name="Layer 4"><line class="cls-3" x1="127.55" y1="238.46" x2="127.22" y2="238.79"/><path class="cls-1" d="M261.34,266.32a4,4,0,0,0-5.62.08L156.19,365a3.89,3.89,0,0,0-.05,5.54,4,4,0,0,0,5.62-.08l99.53-98.59A3.89,3.89,0,0,0,261.34,266.32Z"/><line class="cls-4" x1="265.09" y1="271.08" x2="164.59" y2="371.58"/><line class="cls-4" x1="145.39" y1="371.14" x2="163.59" y2="371.58"/></g><g id="text"><path class="cls-5" d="M69.29,159.41v18H67.87V139.11H80.33q6,0,9.31,2.62t3.26,7.64a9.32,9.32,0,0,1-2.06,5.88,9.49,9.49,0,0,1-5.64,3.43q4.13.71,5.92,3a9.4,9.4,0,0,1,1.79,5.92v3.6a11,11,0,0,0,.43,3.21,5,5,0,0,0,1.43,2.31v.66H93.38A7,7,0,0,1,92,174.73a12.47,12.47,0,0,1-.47-3.56v-3.5a7.41,7.41,0,0,0-2.67-6.07q-2.67-2.18-7.61-2.18Zm0-1.42H80.07q5.86,0,8.64-2.47a8.64,8.64,0,0,0,0-12.72q-2.8-2.27-8.35-2.27h-11Z"/><path class="cls-5" d="M122.2,172.38a9.82,9.82,0,0,1-3.81,4.09,11.6,11.6,0,0,1-6,1.46,8.31,8.31,0,0,1-6.88-3.12q-2.49-3.12-2.49-9.66V148.92h1.42V165.2q0,5.79,2.13,8.55a6.89,6.89,0,0,0,5.76,2.76,9.77,9.77,0,0,0,6.72-2.12,9.89,9.89,0,0,0,3.09-5.59V148.92h1.45v16.75h.05q0,.34,0,.66c0,.21,0,.46,0,.74v10.31h-1.18Z"/><path class="cls-5" d="M133.61,148.92l.18,5.73a10.68,10.68,0,0,1,3.71-4.62,10.07,10.07,0,0,1,5.84-1.64,9.19,9.19,0,0,1,5.92,1.83,9.81,9.81,0,0,1,3.18,5.67,11.37,11.37,0,0,1,3.72-5.54,10,10,0,0,1,6.32-2,8.59,8.59,0,0,1,7.15,3.08q2.45,3.08,2.45,9.68v16.23h-1.45V161.07q0-6.18-2.21-8.73a7.4,7.4,0,0,0-5.89-2.55q-4.39,0-6.69,2.58a12.82,12.82,0,0,0-3,6.68l.05,1.06q0,.54,0,1.09v16.17h-1.45V162.8h-.08q0-.5,0-1t.07-1q-.08-6-2.26-8.53a7.41,7.41,0,0,0-5.86-2.48q-4.34,0-6.61,2.51a12.62,12.62,0,0,0-3,6.51v18.54h-1.45V162.8h-.05c0-.25,0-.49,0-.74s0-.55,0-.92V148.92Z"/><path class="cls-5" d="M198.76,172.11a11.1,11.1,0,0,1-4.39,4.19,14.4,14.4,0,0,1-7.07,1.62,8.63,8.63,0,0,1-6.23-2.17,7.73,7.73,0,0,1-2.26-5.85,7.17,7.17,0,0,1,3.38-6,14.16,14.16,0,0,1,8.46-2.42h8.13v-4.16a7,7,0,0,0-2.28-5.54,9.43,9.43,0,0,0-6.4-2,9.72,9.72,0,0,0-6.22,1.87,5.87,5.87,0,0,0-2.35,4.81l-1.18-.05-.05-.13a6.63,6.63,0,0,1,2.58-5.61,10.86,10.86,0,0,1,7.23-2.3,11,11,0,0,1,7.34,2.31,8.23,8.23,0,0,1,2.76,6.68v14.25a24.35,24.35,0,0,0,.17,2.92,18.34,18.34,0,0,0,.57,2.81h-1.58q-.34-1.87-.46-2.8a16,16,0,0,1-.12-2Zm-11.47,4.42a13.08,13.08,0,0,0,7.17-1.87,10.84,10.84,0,0,0,4.3-5.34v-6.39h-8a13.08,13.08,0,0,0-7.46,2,6,6,0,0,0-3,5,6.17,6.17,0,0,0,1.93,4.69A7.17,7.17,0,0,0,187.29,176.53Z"/><path class="cls-5" d="M210.75,154.83a10.73,10.73,0,0,1,3.89-4.75,11,11,0,0,1,6.21-1.7,8.21,8.21,0,0,1,6.75,2.81q2.3,2.81,2.3,8.86v17.3h-1.45V160q0-5.6-2.06-7.9a7,7,0,0,0-5.51-2.3,9,9,0,0,0-7,2.66,12.82,12.82,0,0,0-3.14,6.81v18.09h-1.42V162.8h-.05v-.92a5.2,5.2,0,0,1,.05-.74v-24.8h1.42Z"/><path class="cls-5" d="M95.25,231.23l-4.54-12.35H73.49L69,231.23h-3l15-39.7h2.6l14.81,39.7ZM83.07,198a14.74,14.74,0,0,1-.5-1.63q-.19-.69-.42-1.38H82a26.92,26.92,0,0,1-.91,3l-6.67,18.41H89.77Z"/><path class="cls-5" d="M104.5,231.23v-42H107v42Z"/><path class="cls-5" d="M118.78,226.19h-.11v5h-2.55v-42h2.55v19.46h.11a11.2,11.2,0,0,1,4.36-4.83,11.91,11.91,0,0,1,6.24-1.7,10.27,10.27,0,0,1,8.43,3.72q3,3.72,3,10.12,0,7.11-3.52,11.5a11.16,11.16,0,0,1-9.13,4.39A10,10,0,0,1,118.78,226.19Zm-.11-10.55v3.57a10.72,10.72,0,0,0,2.69,7.32,8.94,8.94,0,0,0,7.06,3.06,8.36,8.36,0,0,0,7.06-3.72q2.71-3.72,2.71-9.79,0-5.32-2.49-8.44a8.06,8.06,0,0,0-6.64-3.13,9.34,9.34,0,0,0-7.67,3.32A12,12,0,0,0,118.67,215.65Z"/><path class="cls-5" d="M166.59,231.23v-5.15h-.11q-3,5.84-9.13,5.84-10,0-10-12.65V202.88h2.57v15.75q0,5.76,1.9,8.36t6,2.6a8,8,0,0,0,6.41-2.91,11.63,11.63,0,0,0,2.45-7.75V202.88h2.55v28.35Z"/><path class="cls-5" d="M213.76,231.23V214.18q0-5.34-1.67-7.5t-5.3-2.16A7.36,7.36,0,0,0,201,207.4a10.8,10.8,0,0,0-2.44,7.22v16.61H196V214q0-9.47-7.2-9.47a7.07,7.07,0,0,0-5.76,2.89,11.68,11.68,0,0,0-2.3,7.49v16.33h-2.55V202.88h2.55v4.71h.11q3-5.4,8.67-5.4a8.15,8.15,0,0,1,5.3,1.79,8.78,8.78,0,0,1,3,4.69,10.84,10.84,0,0,1,3.81-4.78,9.32,9.32,0,0,1,5.38-1.7q9.3,0,9.3,11.52v17.52Z"/></g></svg>